<svg width="468" height="469" viewBox="0 0 468 469" fill="none" xmlns="http://www.w3.org/2000/svg">
<path d="M417.736 63.585H178.891V359.061H417.736V63.585Z" fill="#0057FF"/>
<path d="M361.901 30.215C368.804 30.0936 368.925 39.6799 375.829 39.5586C382.733 39.4372 382.612 29.8509 389.516 29.7296C396.419 29.6083 396.54 39.1945 403.444 39.0732C410.348 38.9519 410.227 29.3656 417.13 29.2442C424.034 29.1229 424.155 38.7092 431.059 38.5878C437.963 38.4665 437.842 28.8802 444.745 28.7588C451.649 28.6375 451.77 38.2238 458.795 38.1024" stroke="black" stroke-width="1.5" stroke-miterlimit="10" stroke-linecap="round" stroke-linejoin="round"/>
<path d="M150.429 332.972C157.332 332.85 157.211 323.264 164.115 323.143C171.019 323.021 171.14 332.608 178.044 332.486C184.947 332.365 184.826 322.779 191.73 322.657C198.634 322.536 198.755 332.122 205.659 332.001C212.562 331.88 212.441 322.293 219.345 322.172" stroke="black" stroke-width="1.5" stroke-miterlimit="10" stroke-linecap="round" stroke-linejoin="round"/>
<path d="M25.7982 282.249L16.4721 291.714L7.0249 282.249L16.351 272.784L25.7982 282.249Z" stroke="black" stroke-width="1.5" stroke-miterlimit="10" stroke-linecap="round" stroke-linejoin="round"/>
<path d="M298.314 99.1391L288.867 108.604L279.541 99.1391L288.867 89.6742L298.314 99.1391Z" stroke="black" stroke-width="1.5" stroke-miterlimit="10" stroke-linecap="round" stroke-linejoin="round"/>
<path d="M334.043 428.106H442.565" stroke="black" stroke-miterlimit="10"/>
<path d="M9.68945 26.4532L23.1335 40.0439" stroke="black" stroke-width="1.5" stroke-miterlimit="10" stroke-linecap="round" stroke-linejoin="round"/>
<path d="M23.1335 26.4532L9.68945 40.0439" stroke="black" stroke-width="1.5" stroke-miterlimit="10" stroke-linecap="round" stroke-linejoin="round"/>
<path d="M435.783 69.6522L449.348 83.2429" stroke="black" stroke-width="1.5" stroke-miterlimit="10" stroke-linecap="round" stroke-linejoin="round"/>
<path d="M449.348 69.6522L435.783 83.2429" stroke="black" stroke-width="1.5" stroke-miterlimit="10" stroke-linecap="round" stroke-linejoin="round"/>
<path d="M213.047 99.1392H259.798" stroke="black" stroke-width="1.5" stroke-miterlimit="10" stroke-linecap="round" stroke-linejoin="round"/>
<path d="M103.556 282.249H127.779" stroke="black" stroke-width="1.5" stroke-miterlimit="10" stroke-linecap="round" stroke-linejoin="round"/>
<path d="M120.512 418.52H27.9783V428.107H120.512V418.52Z" fill="#0057FF"/>
<path d="M354.876 441.94H363.96V444.246H360.811V453.71H357.904V444.246H354.876V441.94Z" fill="black"/>
<path d="M368.199 453.71H365.292V444.367H368.199V445.944C368.804 444.974 369.894 444.245 371.106 444.245V447.279H370.379C369.047 447.279 368.199 447.764 368.199 449.342V453.71Z" fill="black"/>
<path d="M378.978 444.367H382.128L376.314 458.2H373.286L375.466 453.468L371.711 444.488H374.86L377.041 450.313L378.978 444.367Z" fill="black"/>
<path d="M393.028 448.614C393.028 447.4 392.301 446.672 391.211 446.672C390.121 446.672 389.395 447.4 389.395 448.614V453.71H386.488V444.367H389.395V445.58C390 444.852 390.969 444.245 392.18 444.245C394.36 444.245 395.814 445.702 395.814 448.25V453.71H393.028V448.614Z" fill="black"/>
<path d="M402.112 453.832C399.326 453.832 397.267 452.012 397.267 448.978C397.267 445.944 399.447 444.124 402.112 444.124C404.898 444.124 406.957 445.944 406.957 448.978C406.957 452.012 404.898 453.832 402.112 453.832ZM402.112 451.284C403.081 451.284 404.05 450.555 404.05 448.978C404.05 447.4 403.081 446.672 402.112 446.672C401.022 446.672 400.174 447.4 400.174 448.978C400.174 450.555 401.143 451.284 402.112 451.284Z" fill="black"/>
<path d="M407.562 444.367H410.469L411.801 451.041L413.376 444.367H416.404L417.978 451.041L419.311 444.367H421.975L419.432 453.71H416.283L414.829 447.643L413.255 453.71H410.106L407.562 444.367Z" fill="black"/>
<path d="M31.0062 449.099L30.6429 451.041H32.3385V451.769H30.5217L30.0373 454.317H29.1895L29.6739 451.769H27.8572L27.3727 454.317H26.646L27.1304 451.769H25.5559V451.041H27.2516L27.6149 449.099H26.0404V448.371H27.736L28.2205 445.823H29.0683L28.5839 448.371H30.4006L30.8851 445.823H31.6118L31.1273 448.371H32.7019V449.099H31.0062ZM27.9783 451.041H29.795L30.1584 449.099H28.3416L27.9783 451.041Z" fill="black"/>
<path d="M38.1523 452.618C38.1523 453.225 37.91 453.71 37.5467 453.953C37.0622 454.317 36.4566 454.438 35.7299 454.438C34.8821 454.438 34.2765 454.317 33.792 454.074V453.225C34.1554 453.346 34.3976 453.468 34.761 453.589C35.1243 453.71 35.4877 453.71 35.7299 453.71C36.2144 453.71 36.5777 453.589 36.9411 453.468C37.1833 453.346 37.3044 453.104 37.3044 452.74C37.3044 452.497 37.1833 452.254 36.9411 452.133C36.6989 452.011 36.3355 451.769 35.7299 451.526C35.1243 451.283 34.761 451.162 34.5187 450.919C34.2765 450.798 34.0343 450.555 33.9131 450.313C33.792 450.07 33.6709 449.827 33.6709 449.585C33.6709 449.099 33.9131 448.614 34.2765 448.371C34.6398 448.007 35.2454 447.886 35.9721 447.886C36.6989 447.886 37.3044 448.007 38.0312 448.25L37.6678 449.099C37.0622 448.857 36.4566 448.735 35.9721 448.735C35.4877 448.735 35.1243 448.856 34.8821 448.978C34.6398 449.099 34.5187 449.342 34.5187 449.585C34.5187 449.706 34.5187 449.949 34.6398 450.07C34.761 450.191 34.8821 450.313 35.0032 450.434C35.2454 450.555 35.6088 450.677 36.0933 450.919C36.82 451.162 37.3044 451.526 37.6678 451.769C38.0312 451.769 38.1523 452.133 38.1523 452.618Z" fill="black"/>
<path d="M45.177 451.162C45.177 452.254 44.9347 452.982 44.4502 453.589C43.9658 454.196 43.2391 454.438 42.2701 454.438C41.6645 454.438 41.1801 454.317 40.6956 454.074C40.2111 453.832 39.9689 453.468 39.7266 452.861C39.4844 452.376 39.3633 451.769 39.3633 451.041C39.3633 449.949 39.6055 449.221 40.09 448.614C40.5745 448.007 41.3012 447.764 42.2701 447.764C43.1179 447.764 43.8447 448.007 44.4502 448.614C44.9347 449.342 45.177 450.07 45.177 451.162ZM40.3322 451.162C40.3322 452.011 40.4533 452.618 40.8167 452.982C41.1801 453.468 41.6645 453.589 42.2701 453.589C42.8757 453.589 43.3602 453.346 43.7235 452.982C44.0869 452.497 44.208 451.89 44.208 451.162C44.208 450.313 44.0869 449.706 43.7235 449.342C43.3602 448.978 42.8757 448.735 42.2701 448.735C41.6645 448.735 41.1801 448.978 40.8167 449.342C40.4533 449.706 40.3322 450.313 40.3322 451.162Z" fill="black"/>
<path d="M49.4161 454.438C48.4472 454.438 47.7205 454.196 47.236 453.589C46.7515 452.982 46.5093 452.254 46.5093 451.162C46.5093 450.07 46.7515 449.221 47.236 448.735C47.7205 448.128 48.4472 447.886 49.4161 447.886C49.7795 447.886 50.0217 447.886 50.3851 448.007C50.7484 448.128 50.9906 448.128 51.1118 448.25L50.8695 448.978C50.6273 448.856 50.3851 448.856 50.1428 448.735C49.9006 448.735 49.6583 448.614 49.4161 448.614C48.0838 448.614 47.4782 449.463 47.4782 451.041C47.4782 451.769 47.5993 452.376 47.9627 452.861C48.326 453.225 48.6894 453.468 49.4161 453.468C49.9006 453.468 50.5062 453.346 51.1118 453.104V453.953C50.6273 454.317 50.1428 454.438 49.4161 454.438Z" fill="black"/>
<path d="M52.5652 446.187C52.5652 445.944 52.5652 445.823 52.6863 445.702C52.8074 445.58 52.9285 445.58 53.0496 445.58C53.1708 445.58 53.2919 445.58 53.413 445.702C53.5341 445.823 53.5341 445.944 53.5341 446.187C53.5341 446.43 53.5341 446.551 53.413 446.672C53.2919 446.794 53.1708 446.794 53.0496 446.794C52.9285 446.794 52.8074 446.794 52.6863 446.672C52.5652 446.551 52.5652 446.43 52.5652 446.187ZM53.5341 454.317H52.5652V447.886H53.5341V454.317Z" fill="black"/>
<path d="M59.59 454.317L59.3477 453.346C58.9844 453.71 58.7422 454.074 58.3788 454.196C58.0154 454.317 57.6521 454.438 57.1676 454.438C56.562 454.438 56.0776 454.317 55.7142 453.953C55.3509 453.589 55.2297 453.104 55.2297 452.618C55.2297 451.283 56.3198 450.677 58.3788 450.555H59.4689V450.191C59.4689 449.706 59.3477 449.342 59.1055 449.099C58.8633 448.857 58.4999 448.735 58.0154 448.735C57.531 448.735 56.9254 448.857 56.1987 449.221L55.9564 448.493C56.3198 448.371 56.562 448.129 57.0465 448.129C57.4099 448.007 57.7732 448.007 58.1366 448.007C58.8633 448.007 59.4689 448.129 59.8322 448.493C60.1956 448.857 60.4378 449.342 60.4378 450.07V454.438H59.59V454.317ZM57.4099 453.71C58.0154 453.71 58.4999 453.589 58.8633 453.225C59.2266 452.861 59.3477 452.376 59.3477 451.89V451.283H58.3788C57.6521 451.283 57.0465 451.405 56.6831 451.648C56.3198 451.89 56.1987 452.133 56.1987 452.618C56.1987 452.982 56.3198 453.225 56.562 453.468C56.6832 453.589 56.9254 453.71 57.4099 453.71Z" fill="black"/>
<path d="M63.2236 454.317H62.2546V445.216H63.2236V454.317Z" fill="black"/>
<path d="M73.3976 454.317V450.191C73.3976 449.706 73.2765 449.342 73.0343 449.099C72.792 448.857 72.4287 448.735 72.0653 448.735C71.4597 448.735 70.9753 448.857 70.733 449.221C70.4908 449.585 70.2485 450.07 70.2485 450.798V454.317H69.2796V450.191C69.2796 449.706 69.1585 449.342 68.9163 449.099C68.674 448.857 68.3107 448.735 67.9473 448.735C67.3417 448.735 66.8572 448.978 66.615 449.342C66.3728 449.706 66.2517 450.313 66.2517 451.162V454.56H65.2827V448.129H66.0094L66.1305 448.978C66.3728 448.614 66.615 448.371 66.8572 448.25C67.2206 448.129 67.584 448.007 67.9473 448.007C68.9162 448.007 69.643 448.371 69.8852 449.099C70.1274 448.735 70.3697 448.493 70.733 448.25C71.0964 448.007 71.4597 448.007 71.9442 448.007C72.6709 448.007 73.1554 448.25 73.5187 448.614C73.8821 448.978 74.0032 449.585 74.0032 450.434V454.56H73.3976V454.317Z" fill="black"/>
<path d="M79.09 454.438C78.121 454.438 77.3943 454.196 76.9098 453.589C76.3042 452.982 76.062 452.254 76.062 451.162C76.062 450.191 76.3043 449.342 76.7887 448.735C77.2732 448.128 77.9999 447.764 78.8477 447.764C79.6956 447.764 80.3011 448.007 80.7856 448.614C81.2701 449.221 81.5123 449.827 81.5123 450.677V451.283H77.1521C77.1521 452.011 77.3943 452.618 77.7577 452.982C78.121 453.346 78.6055 453.589 79.3322 453.589C80.0589 453.589 80.6645 453.468 81.3912 453.104V453.953C81.0279 454.074 80.7856 454.196 80.4223 454.317C79.9378 454.438 79.4533 454.438 79.09 454.438ZM78.8477 448.614C78.3633 448.614 77.8788 448.735 77.6365 449.099C77.2732 449.463 77.1521 449.949 77.1521 450.434H80.5434C80.5434 449.827 80.4223 449.342 80.18 448.978C79.6956 448.857 79.3322 448.614 78.8477 448.614Z" fill="black"/>
<path d="M87.4472 453.468C86.9628 454.074 86.2361 454.438 85.3882 454.438C84.5404 454.438 83.9348 454.196 83.4503 453.589C82.9659 452.982 82.7236 452.254 82.7236 451.162C82.7236 450.07 82.9659 449.342 83.4503 448.735C83.9348 448.128 84.5404 447.886 85.3882 447.886C86.2361 447.886 86.9628 448.25 87.3261 448.857H87.4472V448.371V447.886V445.338H88.4162V454.438H87.6895L87.4472 453.468ZM85.5094 453.71C86.1149 453.71 86.5994 453.589 86.9628 453.225C87.205 452.861 87.4472 452.254 87.4472 451.526V451.283C87.4472 450.434 87.3261 449.706 86.9628 449.342C86.7205 448.978 86.2361 448.735 85.5094 448.735C84.9038 448.735 84.5404 448.978 84.1771 449.342C83.9348 449.827 83.6926 450.434 83.6926 451.162C83.6926 452.011 83.8137 452.618 84.1771 452.982C84.4193 453.468 84.9038 453.71 85.5094 453.71Z" fill="black"/>
<path d="M90.354 446.187C90.354 445.944 90.354 445.823 90.4751 445.702C90.5962 445.58 90.7174 445.58 90.8385 445.58C90.9596 445.58 91.0807 445.58 91.2018 445.702C91.323 445.823 91.323 445.944 91.323 446.187C91.323 446.43 91.323 446.551 91.2018 446.672C91.0807 446.794 90.9596 446.794 90.8385 446.794C90.7174 446.794 90.5962 446.794 90.4751 446.672C90.354 446.551 90.354 446.43 90.354 446.187ZM91.323 454.317H90.354V447.886H91.323V454.317Z" fill="black"/>
<path d="M97.3788 454.317L97.1366 453.346C96.7732 453.71 96.531 454.074 96.1676 454.196C95.8043 454.317 95.4409 454.438 94.9564 454.438C94.3509 454.438 93.8664 454.317 93.503 453.953C93.1397 453.589 93.0186 453.104 93.0186 452.618C93.0186 451.283 94.1086 450.677 96.1676 450.555H97.2577V450.191C97.2577 449.706 97.1366 449.342 96.8943 449.099C96.6521 448.857 96.2887 448.735 95.8043 448.735C95.3198 448.735 94.7142 448.857 93.9875 449.221L93.7453 448.493C94.1086 448.371 94.3509 448.129 94.8353 448.129C95.1987 448.007 95.562 448.007 95.9254 448.007C96.6521 448.007 97.2577 448.129 97.621 448.493C97.9844 448.857 98.2266 449.342 98.2266 450.07V454.438H97.3788V454.317ZM95.1987 453.71C95.8043 453.71 96.2887 453.589 96.6521 453.225C97.0154 452.861 97.1366 452.376 97.1366 451.89V451.283H96.1676C95.4409 451.283 94.8353 451.405 94.472 451.648C94.1086 451.89 93.9875 452.133 93.9875 452.618C93.9875 452.982 94.1086 453.225 94.3509 453.468C94.472 453.589 94.8353 453.71 95.1987 453.71Z" fill="black"/>
<path d="M107.795 449.099L107.432 451.041H109.127V451.769H107.311L106.826 454.317H105.978L106.463 451.769H104.646L104.162 454.317H103.314L103.798 451.769H102.224V451.041H104.162L104.525 449.099H102.95V448.371H104.646L105.13 445.823H105.978L105.494 448.371H107.311L107.795 445.823H108.522L108.037 448.371H109.612V449.099H107.795ZM104.888 451.041H106.705L107.068 449.099H105.252L104.888 451.041Z" fill="black"/>
<path d="M113.367 454.438C112.398 454.438 111.671 454.196 111.186 453.589C110.702 452.982 110.46 452.254 110.46 451.162C110.46 450.07 110.702 449.221 111.186 448.735C111.671 448.128 112.398 447.886 113.367 447.886C113.73 447.886 113.972 447.886 114.335 448.007C114.699 448.128 114.941 448.128 115.062 448.25L114.82 449.099C114.578 448.978 114.335 448.978 114.093 448.856C113.851 448.856 113.609 448.735 113.367 448.735C112.034 448.735 111.429 449.585 111.429 451.162C111.429 451.89 111.55 452.497 111.913 452.982C112.276 453.346 112.64 453.589 113.367 453.589C113.851 453.589 114.457 453.468 115.062 453.225V454.074C114.578 454.317 114.093 454.438 113.367 454.438Z" fill="black"/>
<path d="M117.485 448.007V452.133C117.485 452.618 117.606 453.104 117.848 453.346C118.09 453.589 118.454 453.71 118.938 453.71C119.665 453.71 120.149 453.468 120.391 453.104C120.755 452.74 120.876 452.133 120.876 451.283V447.886H121.845V454.317H120.997L120.876 453.468C120.634 453.832 120.391 454.074 120.028 454.196C119.665 454.317 119.301 454.438 118.817 454.438C118.09 454.438 117.485 454.196 117.121 453.832C116.758 453.468 116.516 452.861 116.516 452.011V447.764H117.485V448.007Z" fill="black"/>
<path d="M128.022 452.618C128.022 453.225 127.779 453.71 127.416 453.953C126.932 454.317 126.326 454.438 125.599 454.438C124.751 454.438 124.146 454.317 123.661 454.074V453.225C124.025 453.346 124.267 453.468 124.63 453.589C124.994 453.71 125.357 453.71 125.599 453.71C126.084 453.71 126.447 453.589 126.81 453.468C127.053 453.346 127.174 453.104 127.174 452.74C127.174 452.497 127.053 452.254 126.81 452.133C126.568 452.011 126.205 451.769 125.599 451.526C124.994 451.283 124.63 451.162 124.388 450.919C124.146 450.798 123.904 450.555 123.783 450.313C123.661 450.07 123.54 449.827 123.54 449.585C123.54 449.099 123.783 448.614 124.146 448.371C124.509 448.007 125.115 447.886 125.842 447.886C126.568 447.886 127.174 448.007 127.901 448.25L127.537 449.099C126.932 448.857 126.326 448.735 125.842 448.735C125.357 448.735 124.994 448.856 124.751 448.978C124.509 449.099 124.388 449.342 124.388 449.585C124.388 449.706 124.388 449.949 124.509 450.07C124.63 450.191 124.751 450.313 124.873 450.434C125.115 450.555 125.478 450.677 125.963 450.919C126.689 451.162 127.174 451.526 127.537 451.769C127.901 451.769 128.022 452.133 128.022 452.618Z" fill="black"/>
<path d="M131.655 453.71C131.776 453.71 132.019 453.71 132.14 453.71C132.261 453.71 132.382 453.71 132.503 453.589V454.317C132.382 454.317 132.261 454.438 132.019 454.438C131.776 454.438 131.655 454.438 131.413 454.438C130.202 454.438 129.596 453.832 129.596 452.497V448.735H128.627V448.25L129.596 447.886L129.96 446.551H130.565V448.007H132.382V448.735H130.565V452.497C130.565 452.861 130.686 453.225 130.808 453.346C131.05 453.589 131.292 453.71 131.655 453.71Z" fill="black"/>
<path d="M139.286 451.162C139.286 452.254 139.044 452.982 138.559 453.589C138.075 454.196 137.348 454.438 136.379 454.438C135.773 454.438 135.289 454.317 134.804 454.074C134.32 453.832 134.078 453.468 133.836 452.861C133.593 452.376 133.472 451.769 133.472 451.041C133.472 449.949 133.714 449.221 134.199 448.614C134.683 448.007 135.41 447.764 136.379 447.764C137.227 447.764 137.954 448.007 138.559 448.614C139.044 449.342 139.286 450.07 139.286 451.162ZM134.441 451.162C134.441 452.011 134.562 452.618 134.926 452.982C135.289 453.468 135.773 453.589 136.379 453.589C136.985 453.589 137.469 453.346 137.832 452.982C138.196 452.497 138.317 451.89 138.317 451.162C138.317 450.313 138.196 449.706 137.832 449.342C137.469 448.978 136.985 448.735 136.379 448.735C135.773 448.735 135.289 448.978 134.926 449.342C134.562 449.706 134.441 450.313 134.441 451.162Z" fill="black"/>
<path d="M149.096 454.317V450.191C149.096 449.706 148.975 449.342 148.733 449.099C148.491 448.857 148.127 448.735 147.764 448.735C147.158 448.735 146.674 448.857 146.432 449.221C146.19 449.585 145.947 450.07 145.947 450.798V454.317H144.978V450.191C144.978 449.706 144.857 449.342 144.615 449.099C144.373 448.857 144.009 448.735 143.646 448.735C143.04 448.735 142.556 448.978 142.314 449.342C142.072 449.706 141.95 450.313 141.95 451.162V454.56H140.981V448.129H141.708L141.829 448.978C142.072 448.614 142.314 448.371 142.556 448.25C142.919 448.129 143.283 448.007 143.646 448.007C144.615 448.007 145.342 448.371 145.584 449.099C145.826 448.735 146.068 448.493 146.432 448.25C146.795 448.007 147.158 448.007 147.643 448.007C148.37 448.007 148.854 448.25 149.217 448.614C149.581 448.978 149.702 449.585 149.702 450.434V454.56H149.096V454.317Z" fill="black"/>
<path d="M156.484 454.317V450.191C156.484 449.706 156.363 449.221 156.121 448.978C155.879 448.735 155.516 448.614 155.031 448.614C154.304 448.614 153.82 448.857 153.578 449.221C153.214 449.585 153.093 450.191 153.093 451.041V454.438H152.124V445.338H153.093V448.128C153.093 448.492 153.093 448.735 153.093 448.978C153.335 448.614 153.578 448.371 153.941 448.25C154.304 448.128 154.668 448.007 155.152 448.007C155.879 448.007 156.485 448.25 156.969 448.614C157.332 448.978 157.575 449.585 157.575 450.434V454.56H156.484V454.317Z" fill="black"/>
<path d="M163.388 454.317L163.146 453.346C162.782 453.71 162.54 454.074 162.177 454.196C161.814 454.317 161.45 454.438 160.966 454.438C160.36 454.438 159.876 454.317 159.512 453.953C159.149 453.589 159.028 453.104 159.028 452.618C159.028 451.283 160.118 450.677 162.177 450.555H163.267V450.191C163.267 449.706 163.146 449.342 162.904 449.099C162.661 448.857 162.298 448.735 161.814 448.735C161.329 448.735 160.723 448.857 159.997 449.221L159.755 448.493C160.118 448.371 160.36 448.129 160.845 448.129C161.208 448.007 161.571 448.007 161.935 448.007C162.661 448.007 163.267 448.129 163.63 448.493C163.994 448.857 164.236 449.342 164.236 450.07V454.438H163.388V454.317ZM161.208 453.71C161.814 453.71 162.298 453.589 162.661 453.225C163.025 452.861 163.146 452.376 163.146 451.89V451.283H162.177C161.45 451.283 160.845 451.405 160.481 451.648C160.118 451.89 159.997 452.133 159.997 452.618C159.997 452.982 160.118 453.225 160.36 453.468C160.481 453.589 160.845 453.71 161.208 453.71Z" fill="black"/>
<path d="M170.171 452.618C170.171 453.225 169.929 453.71 169.565 453.953C169.081 454.317 168.475 454.438 167.748 454.438C166.901 454.438 166.295 454.317 165.811 454.074V453.225C166.174 453.346 166.416 453.468 166.78 453.589C167.143 453.71 167.506 453.71 167.748 453.71C168.233 453.71 168.596 453.589 168.96 453.468C169.202 453.346 169.323 453.104 169.323 452.74C169.323 452.497 169.202 452.254 168.96 452.133C168.717 452.011 168.354 451.769 167.748 451.526C167.143 451.283 166.78 451.162 166.537 450.919C166.295 450.798 166.053 450.555 165.932 450.313C165.811 450.07 165.689 449.827 165.689 449.585C165.689 449.099 165.932 448.614 166.295 448.371C166.658 448.007 167.264 447.886 167.991 447.886C168.717 447.886 169.323 448.007 170.05 448.25L169.686 449.099C169.081 448.857 168.475 448.735 167.991 448.735C167.506 448.735 167.143 448.856 166.901 448.978C166.658 449.099 166.537 449.342 166.537 449.585C166.537 449.706 166.537 449.949 166.658 450.07C166.78 450.191 166.901 450.313 167.022 450.434C167.264 450.555 167.627 450.677 168.112 450.919C168.839 451.162 169.323 451.526 169.686 451.769C170.05 451.769 170.171 452.133 170.171 452.618Z" fill="black"/>
<path d="M176.106 454.317V450.191C176.106 449.706 175.985 449.221 175.742 448.978C175.5 448.735 175.137 448.614 174.652 448.614C173.925 448.614 173.441 448.857 173.199 449.221C172.835 449.585 172.714 450.191 172.714 451.041V454.438H171.745V445.338H172.714V448.128C172.714 448.492 172.714 448.735 172.714 448.978C172.957 448.614 173.199 448.371 173.562 448.25C173.925 448.128 174.289 448.007 174.773 448.007C175.5 448.007 176.106 448.25 176.59 448.614C176.953 448.978 177.196 449.585 177.196 450.434V454.56H176.106V454.317Z" fill="black"/>
<path d="M181.192 453.71C181.314 453.71 181.556 453.71 181.677 453.71C181.798 453.71 181.919 453.71 182.04 453.589V454.317C181.919 454.317 181.798 454.438 181.556 454.438C181.314 454.438 181.192 454.438 180.95 454.438C179.739 454.438 179.133 453.832 179.133 452.497V448.735H178.165V448.25L179.133 447.886L179.497 446.551H180.102V448.007H181.919V448.735H180.102V452.497C180.102 452.861 180.224 453.225 180.345 453.346C180.587 453.589 180.829 453.71 181.192 453.71Z" fill="black"/>
<path d="M187.248 454.317L187.006 453.346C186.643 453.71 186.401 454.074 186.037 454.196C185.674 454.317 185.311 454.438 184.826 454.438C184.22 454.438 183.736 454.317 183.373 453.953C183.009 453.589 182.888 453.104 182.888 452.618C182.888 451.283 183.978 450.677 186.037 450.555H187.127V450.191C187.127 449.706 187.006 449.342 186.764 449.099C186.522 448.857 186.158 448.735 185.674 448.735C185.189 448.735 184.584 448.857 183.857 449.221L183.615 448.493C183.978 448.371 184.22 448.129 184.705 448.129C185.068 448.007 185.432 448.007 185.795 448.007C186.522 448.007 187.127 448.129 187.491 448.493C187.854 448.857 188.096 449.342 188.096 450.07V454.438H187.248V454.317ZM185.068 453.71C185.674 453.71 186.158 453.589 186.522 453.225C186.885 452.861 187.006 452.376 187.006 451.89V451.283H186.037C185.311 451.283 184.705 451.405 184.342 451.648C183.978 451.89 183.857 452.133 183.857 452.618C183.857 452.982 183.978 453.225 184.22 453.468C184.342 453.589 184.705 453.71 185.068 453.71Z" fill="black"/>
<path d="M195.242 448.007V448.614L194.031 448.735C194.152 448.857 194.273 449.099 194.273 449.221C194.394 449.463 194.394 449.706 194.394 449.949C194.394 450.555 194.152 451.041 193.789 451.405C193.304 451.769 192.82 452.012 191.972 452.012C191.73 452.012 191.609 452.012 191.488 452.012C191.124 452.254 190.882 452.497 190.882 452.861C190.882 452.982 191.003 453.225 191.124 453.225C191.245 453.346 191.488 453.346 191.851 453.346H192.941C193.668 453.346 194.152 453.468 194.515 453.832C194.879 454.074 195.121 454.56 195.121 455.166C195.121 455.895 194.879 456.38 194.273 456.744C193.668 457.108 192.82 457.351 191.73 457.351C190.882 457.351 190.276 457.229 189.792 456.865C189.307 456.501 189.065 456.137 189.065 455.531C189.065 455.166 189.186 454.802 189.429 454.56C189.671 454.317 190.034 454.074 190.519 453.953C190.397 453.832 190.276 453.71 190.155 453.589C190.034 453.468 190.034 453.225 190.034 453.104C190.034 452.861 190.155 452.618 190.276 452.497C190.397 452.376 190.64 452.133 190.882 452.012C190.519 451.89 190.276 451.648 190.034 451.283C189.792 450.919 189.671 450.555 189.671 450.191C189.671 449.463 189.913 448.978 190.276 448.614C190.64 448.25 191.245 448.007 192.093 448.007C192.456 448.007 192.699 448.007 192.941 448.129H195.242V448.007ZM190.155 455.409C190.155 455.773 190.276 456.016 190.64 456.259C190.882 456.38 191.366 456.501 191.851 456.501C192.699 456.501 193.304 456.38 193.668 456.137C194.031 455.895 194.273 455.531 194.273 455.166C194.273 454.802 194.152 454.56 193.91 454.438C193.668 454.317 193.304 454.196 192.699 454.196H191.488C191.003 454.196 190.761 454.317 190.519 454.56C190.276 454.681 190.155 455.045 190.155 455.409ZM190.64 449.949C190.64 450.434 190.761 450.677 191.003 450.919C191.245 451.162 191.609 451.283 192.093 451.283C193.062 451.283 193.547 450.798 193.547 449.949C193.547 448.978 193.062 448.493 192.093 448.493C191.609 448.493 191.245 448.614 191.003 448.857C190.761 449.099 190.64 449.463 190.64 449.949Z" fill="black"/>
<path d="M204.326 449.099L203.963 451.041H205.658V451.769H203.842L203.357 454.317H202.509L202.994 451.769H201.177L200.693 454.317H199.845L200.329 451.769H198.755V451.041H200.45L200.814 449.099H199.239V448.371H200.935L201.419 445.823H202.267L201.783 448.371H203.599L204.084 445.823H204.811L204.326 448.371H205.901V449.099H204.326ZM201.298 451.041H203.115L203.478 449.099H201.661L201.298 451.041Z" fill="black"/>
<path d="M208.323 454.317H207.354V445.216H208.323V454.317Z" fill="black"/>
<path d="M214.258 454.317L214.015 453.346C213.652 453.71 213.41 454.074 213.047 454.196C212.683 454.317 212.32 454.438 211.835 454.438C211.23 454.438 210.745 454.317 210.382 453.953C210.019 453.589 209.897 453.104 209.897 452.618C209.897 451.283 210.988 450.677 213.047 450.555H214.137V450.191C214.137 449.706 214.015 449.342 213.773 449.099C213.531 448.857 213.168 448.735 212.683 448.735C212.199 448.735 211.593 448.857 210.866 449.221L210.624 448.493C210.988 448.371 211.23 448.129 211.714 448.129C212.078 448.007 212.441 448.007 212.804 448.007C213.531 448.007 214.137 448.129 214.5 448.493C214.863 448.857 215.106 449.342 215.106 450.07V454.438H214.258V454.317ZM212.078 453.71C212.683 453.71 213.168 453.589 213.531 453.225C213.894 452.861 214.015 452.376 214.015 451.89V451.283H213.047C212.32 451.283 211.714 451.405 211.351 451.648C210.988 451.89 210.866 452.133 210.866 452.618C210.866 452.982 210.988 453.225 211.23 453.468C211.351 453.589 211.714 453.71 212.078 453.71Z" fill="black"/>
<path d="M219.102 453.71C219.224 453.71 219.466 453.71 219.587 453.71C219.708 453.71 219.829 453.71 219.95 453.589V454.317C219.829 454.317 219.708 454.438 219.466 454.438C219.224 454.438 219.102 454.438 218.86 454.438C217.649 454.438 217.043 453.832 217.043 452.497V448.735H216.074V448.25L217.043 447.886L217.407 446.551H218.012V448.007H219.829V448.735H218.012V452.497C218.012 452.861 218.133 453.225 218.255 453.346C218.497 453.589 218.739 453.71 219.102 453.71Z" fill="black"/>
<path d="M223.947 454.438C222.978 454.438 222.252 454.196 221.767 453.589C221.161 452.982 220.919 452.254 220.919 451.162C220.919 450.191 221.161 449.342 221.646 448.735C222.13 448.128 222.857 447.764 223.705 447.764C224.553 447.764 225.158 448.007 225.643 448.614C226.127 449.221 226.37 449.827 226.37 450.677V451.283H222.009C222.009 452.011 222.252 452.618 222.615 452.982C222.978 453.346 223.463 453.589 224.189 453.589C224.916 453.589 225.522 453.468 226.248 453.104V453.953C225.885 454.074 225.643 454.196 225.279 454.317C224.674 454.438 224.31 454.438 223.947 454.438ZM223.584 448.614C223.099 448.614 222.615 448.735 222.373 449.099C222.009 449.463 221.888 449.949 221.888 450.434H225.279C225.279 449.827 225.158 449.342 224.916 448.978C224.553 448.857 224.189 448.614 223.584 448.614Z" fill="black"/>
<path d="M232.062 452.618C232.062 453.225 231.82 453.71 231.457 453.953C230.972 454.317 230.367 454.438 229.64 454.438C228.792 454.438 228.186 454.317 227.702 454.074V453.225C228.065 453.346 228.308 453.468 228.671 453.589C229.034 453.71 229.398 453.71 229.64 453.71C230.124 453.71 230.488 453.589 230.851 453.468C231.093 453.346 231.214 453.104 231.214 452.74C231.214 452.497 231.093 452.254 230.851 452.133C230.609 452.011 230.245 451.769 229.64 451.526C229.034 451.283 228.671 451.162 228.429 450.919C228.186 450.798 227.944 450.555 227.823 450.313C227.702 450.07 227.581 449.827 227.581 449.585C227.581 449.099 227.823 448.614 228.186 448.371C228.55 448.007 229.155 447.886 229.882 447.886C230.609 447.886 231.214 448.007 231.941 448.25L231.578 449.099C230.972 448.857 230.367 448.735 229.882 448.735C229.398 448.735 229.034 448.856 228.792 448.978C228.55 449.099 228.429 449.342 228.429 449.585C228.429 449.706 228.429 449.949 228.55 450.07C228.671 450.191 228.792 450.313 228.913 450.434C229.155 450.555 229.519 450.677 230.003 450.919C230.73 451.162 231.214 451.526 231.578 451.769C231.941 451.769 232.062 452.133 232.062 452.618Z" fill="black"/>
<path d="M235.696 453.71C235.817 453.71 236.059 453.71 236.18 453.71C236.301 453.71 236.422 453.71 236.544 453.589V454.317C236.422 454.317 236.301 454.438 236.059 454.438C235.817 454.438 235.696 454.438 235.453 454.438C234.242 454.438 233.637 453.832 233.637 452.497V448.735H232.668V448.25L233.637 447.886L234 446.551H234.606V448.007H236.422V448.735H234.606V452.497C234.606 452.861 234.727 453.225 234.848 453.346C235.09 453.589 235.332 453.71 235.696 453.71Z" fill="black"/>
<path d="M239.935 453.71C240.056 453.71 240.298 453.71 240.419 453.71C240.54 453.71 240.661 453.71 240.783 453.589V454.317C240.661 454.317 240.54 454.438 240.298 454.438C240.056 454.438 239.935 454.438 239.692 454.438C238.481 454.438 237.876 453.832 237.876 452.497V448.735H236.907V448.25L237.876 447.886L238.239 446.551H238.845V448.007H240.661V448.735H238.845V452.497C238.845 452.861 238.966 453.225 239.087 453.346C239.329 453.589 239.571 453.71 239.935 453.71Z" fill="black"/>
<path d="M244.901 447.886C245.143 447.886 245.385 447.886 245.627 448.007L245.506 448.857C245.264 448.857 245.022 448.735 244.779 448.735C244.295 448.735 243.81 448.978 243.447 449.342C243.084 449.706 242.842 450.313 242.842 450.919V454.317H241.873V447.886H242.72L242.842 449.099C243.084 448.735 243.326 448.371 243.689 448.128C244.174 447.886 244.537 447.886 244.901 447.886Z" fill="black"/>
<path d="M249.624 454.438C248.655 454.438 247.928 454.196 247.444 453.589C246.838 452.982 246.596 452.254 246.596 451.162C246.596 450.191 246.838 449.342 247.323 448.735C247.807 448.128 248.534 447.764 249.382 447.764C250.23 447.764 250.835 448.007 251.32 448.614C251.804 449.099 252.047 449.827 252.047 450.677V451.283H247.686C247.686 452.011 247.928 452.618 248.292 452.982C248.655 453.346 249.14 453.589 249.866 453.589C250.593 453.589 251.199 453.468 251.925 453.104V453.953C251.562 454.074 251.199 454.196 250.956 454.317C250.351 454.438 249.988 454.438 249.624 454.438ZM249.382 448.614C248.897 448.614 248.413 448.735 248.171 449.099C247.807 449.463 247.686 449.949 247.686 450.434H251.078C251.078 449.827 250.956 449.342 250.714 448.978C250.23 448.857 249.866 448.614 249.382 448.614Z" fill="black"/>
<path d="M257.981 454.317V450.191C257.981 449.706 257.86 449.221 257.618 448.978C257.376 448.735 257.012 448.614 256.528 448.614C255.801 448.614 255.317 448.857 255.075 449.099C254.711 449.463 254.59 450.07 254.59 450.919V454.317H253.621V447.886H254.348L254.469 448.735C254.711 448.371 254.953 448.128 255.317 448.007C255.68 447.886 256.043 447.764 256.528 447.764C257.255 447.764 257.86 448.007 258.224 448.371C258.587 448.735 258.829 449.342 258.829 450.191V454.317H257.981Z" fill="black"/>
<path d="M265.248 453.468C264.764 454.074 264.037 454.438 263.189 454.438C262.342 454.438 261.736 454.196 261.252 453.589C260.767 452.982 260.525 452.254 260.525 451.162C260.525 450.07 260.767 449.342 261.252 448.735C261.736 448.128 262.342 447.886 263.189 447.886C264.037 447.886 264.764 448.25 265.127 448.857H265.248V448.371V447.886V445.338H266.217V454.438H265.37L265.248 453.468ZM263.311 453.71C263.916 453.71 264.401 453.589 264.764 453.225C265.006 452.861 265.248 452.254 265.248 451.526V451.283C265.248 450.434 265.127 449.706 264.764 449.342C264.401 448.978 264.037 448.735 263.311 448.735C262.705 448.735 262.342 448.978 261.978 449.342C261.736 449.827 261.494 450.434 261.494 451.162C261.494 452.011 261.615 452.618 261.978 452.982C262.342 453.346 262.705 453.71 263.311 453.71Z" fill="black"/>
<path d="M433.724 450.677L439.295 448.371L433.724 445.823V443.881L441.839 447.886V449.099L433.724 452.74V450.677Z" fill="black"/>
<path d="M58.7422 50.8438C50.1428 50.8438 43.3602 46.718 42.9968 38.4665H54.503C54.7453 41.3788 56.4409 42.3496 58.3788 42.3496C60.3167 42.3496 61.7701 41.3788 61.7701 39.5586C61.7701 33.37 42.8757 36.2823 43.1179 22.813C43.1179 15.1682 49.4161 11.1638 57.6521 11.1638C66.4937 11.1638 72.4285 15.5323 72.7918 23.177H61.0434C60.9223 20.7501 59.4689 19.658 57.531 19.658C55.9565 19.658 54.6242 20.5074 54.6242 22.4489C54.6242 28.2735 73.2763 26.332 73.2763 38.8306C73.1552 45.6259 67.9471 50.8438 58.7422 50.8438Z" fill="black"/>
<path d="M92.0498 19.2939C99.8013 19.2939 105.615 23.7837 107.068 31.5498H95.6833C95.0777 29.7297 93.8665 28.5162 91.8075 28.5162C89.1429 28.5162 87.4473 30.7004 87.4473 35.0688C87.4473 39.5586 89.2641 41.7428 91.8075 41.7428C93.8665 41.7428 95.0777 40.6507 95.6833 38.7092H107.068C105.494 46.354 99.8013 50.9651 92.0498 50.9651C82.8448 50.9651 76.4255 45.0192 76.4255 35.0688C76.4255 25.2399 82.8448 19.2939 92.0498 19.2939Z" fill="black"/>
<path d="M111.55 9.82898H122.329V24.0264C124.146 21.3568 127.416 19.2939 131.776 19.2939C138.801 19.2939 143.283 24.3904 143.283 32.3992V50.3583H132.503V33.9767C132.503 30.4577 130.565 28.2735 127.416 28.2735C124.267 28.2735 122.208 30.3364 122.208 33.9767V50.4797H111.428V9.82898H111.55Z" fill="black"/>
<path d="M163.146 50.8438C154.062 50.8438 147.522 44.8978 147.522 34.9475C147.522 25.1185 153.941 19.1726 163.146 19.1726C172.23 19.1726 178.649 25.1185 178.649 34.5835C178.649 35.4329 178.649 36.2823 178.528 37.1317H158.18C158.422 40.6507 160.36 42.1069 162.783 42.1069C164.842 42.1069 166.053 40.8934 166.658 39.68H178.165C176.59 46.1113 170.776 50.8438 163.146 50.8438ZM158.18 32.0352H167.627C167.627 29.2443 165.447 27.7881 163.025 27.7881C160.481 27.7881 158.665 29.2443 158.18 32.0352Z" fill="black"/>
<path d="M194.515 19.2939C198.633 19.2939 201.783 21.1141 203.478 23.905V9.82898H214.258V50.601H203.478V46.3539C201.904 49.1449 198.755 51.0864 194.515 51.0864C187.248 51.0864 181.435 45.1405 181.435 35.1902C181.314 25.2398 187.127 19.2939 194.515 19.2939ZM197.907 28.6375C194.879 28.6375 192.335 30.8217 192.335 35.0688C192.335 39.1946 194.879 41.5001 197.907 41.5001C200.935 41.5001 203.478 39.1946 203.478 35.0688C203.478 30.9431 200.935 28.6375 197.907 28.6375Z" fill="black"/>
<path d="M251.926 50.4797H241.146V46.1112C239.329 48.7808 236.18 50.8437 231.82 50.8437C224.674 50.8437 220.193 45.7472 220.193 37.6171V19.658H230.851V36.1609C230.851 39.6799 232.91 41.8642 235.938 41.8642C239.087 41.8642 241.025 39.8013 241.025 36.1609V19.658H251.804V50.4797H251.926Z" fill="black"/>
<path d="M258.103 9.82898H268.882V50.601H258.103V9.82898Z" fill="black"/>
<path d="M288.866 50.8438C279.783 50.8438 273.242 44.8978 273.242 34.9475C273.242 25.1185 279.661 19.1726 288.866 19.1726C297.95 19.1726 304.37 25.1185 304.37 34.5835C304.37 35.4329 304.369 36.2823 304.248 37.1317H283.901C284.143 40.6507 286.081 42.1069 288.503 42.1069C290.562 42.1069 291.773 40.8934 292.379 39.68H303.885C302.31 46.1113 296.618 50.8438 288.866 50.8438ZM283.901 32.0352H293.348C293.348 29.2443 291.168 27.7881 288.745 27.7881C286.323 27.7881 284.506 29.2443 283.901 32.0352Z" fill="black"/>
<path d="M60.1956 100.838H54.8664V113.943H44.0869V75.1128H60.1956C69.7639 75.1128 74.7298 80.5733 74.7298 88.0967C74.7298 94.7707 70.1273 100.838 60.1956 100.838ZM59.2267 92.2225C62.4969 92.2225 63.8292 90.5237 63.8292 88.0967C63.8292 85.5485 62.4969 83.8497 59.2267 83.8497H54.9875V92.2225H59.2267Z" fill="black"/>
<path d="M93.3819 114.307C84.1769 114.307 77.2732 108.361 77.2732 98.4111C77.2732 88.5822 84.298 82.6362 93.3819 82.6362C102.466 82.6362 109.491 88.5822 109.491 98.4111C109.612 108.361 102.587 114.307 93.3819 114.307ZM93.3819 104.964C96.1676 104.964 98.7111 102.901 98.7111 98.4111C98.7111 94.0427 96.2887 91.9798 93.503 91.9798C90.7173 91.9798 88.2949 94.0427 88.2949 98.4111C88.2949 102.901 90.5962 104.964 93.3819 104.964Z" fill="black"/>
<path d="M127.174 114.307C118.574 114.307 112.882 109.696 112.397 103.508H122.814C123.056 105.571 124.751 106.663 127.053 106.663C128.87 106.663 129.96 105.813 129.96 104.721C129.96 100.231 113.609 103.872 113.609 92.5866C113.609 87.2474 118.09 82.7576 126.447 82.7576C134.804 82.7576 139.286 87.49 140.012 93.5573H130.323C129.96 91.6158 128.627 90.5237 126.326 90.5237C124.509 90.5237 123.661 91.2517 123.661 92.3439C123.661 96.7123 140.133 93.1933 140.133 104.964C139.891 110.182 135.047 114.307 127.174 114.307Z" fill="black"/>
<path d="M146.916 91.9798H143.161V83.0002H146.916V75.4768H157.696V83.0002H163.267V91.9798H157.696V102.294C157.696 103.993 158.422 104.721 160.239 104.721H163.388V113.943H158.664C151.882 113.943 146.795 111.031 146.795 102.173V91.9798H146.916Z" fill="black"/>
<path d="M181.435 114.307C172.835 114.307 167.143 109.696 166.658 103.508H177.075C177.317 105.571 179.012 106.663 181.314 106.663C183.131 106.663 184.221 105.813 184.221 104.721C184.221 100.231 167.87 103.872 167.87 92.5866C167.87 87.2474 172.351 82.7576 180.708 82.7576C189.065 82.7576 193.547 87.49 194.273 93.5573H184.584C184.221 91.6158 182.888 90.5237 180.587 90.5237C178.77 90.5237 177.922 91.2517 177.922 92.3439C177.922 96.7123 194.394 93.1933 194.394 104.964C194.273 110.182 189.429 114.307 181.435 114.307Z" fill="black"/>
<path d="M68.6739 170.976H54.8664L52.8074 177.286H41.5435L55.7143 138.455H68.0683L82.118 177.286H70.7329L68.6739 170.976ZM61.7702 150.226L57.6522 162.724H65.8882L61.7702 150.226Z" fill="black"/>
<path d="M106.584 160.783C106.584 157.264 104.646 155.079 101.497 155.079C98.3478 155.079 96.2888 157.142 96.2888 160.783V177.407H85.5093V146.585H96.2888V150.954C98.1056 148.284 101.376 146.221 105.736 146.221C112.882 146.221 117.363 151.318 117.363 159.326V177.286H106.584V160.783Z" fill="black"/>
<path d="M134.683 146.1C138.801 146.1 141.95 147.92 143.646 150.711V136.635H154.425V177.407H143.646V173.16C142.071 175.951 138.922 177.892 134.683 177.892C127.416 177.892 121.603 171.946 121.603 161.996C121.603 152.046 127.416 146.1 134.683 146.1ZM138.075 155.443C135.047 155.443 132.503 157.628 132.503 161.875C132.503 166 135.047 168.306 138.075 168.306C141.103 168.306 143.646 166 143.646 161.875C143.767 157.749 141.103 155.443 138.075 155.443Z" fill="black"/>
<path d="M171.14 138.576H184.099L193.789 163.816L203.236 138.576H216.196V177.407H205.416V156.05L198.149 177.407H189.186L181.798 155.807V177.407H171.019V138.576H171.14Z" fill="black"/>
<path d="M236.786 177.771C227.581 177.771 220.677 171.825 220.677 161.875C220.677 152.046 227.702 146.1 236.786 146.1C245.87 146.1 252.894 152.046 252.894 161.875C253.016 171.704 245.991 177.771 236.786 177.771ZM236.786 168.306C239.571 168.306 242.115 166.243 242.115 161.753C242.115 157.385 239.693 155.322 236.907 155.322C234.121 155.322 231.699 157.385 231.699 161.753C231.699 166.365 234 168.306 236.786 168.306Z" fill="black"/>
<path d="M278.45 160.783C278.45 157.264 276.512 155.079 273.363 155.079C270.214 155.079 268.155 157.142 268.155 160.783V177.407H257.376V146.585H268.155V150.954C269.972 148.284 273.242 146.221 277.602 146.221C284.748 146.221 289.23 151.318 289.23 159.326V177.286H278.45V160.783Z" fill="black"/>
<path d="M294.196 138.091C294.196 134.936 296.618 132.509 300.494 132.509C304.248 132.509 306.792 134.936 306.792 138.091C306.792 141.125 304.369 143.552 300.494 143.552C296.739 143.552 294.196 141.125 294.196 138.091ZM295.043 146.464H305.823V177.286H295.043V146.464Z" fill="black"/>
<path d="M313.696 155.443H309.941V146.464H313.696V138.94H324.475V146.464H330.047V155.443H324.596V165.758C324.596 167.457 325.323 168.185 327.14 168.185H330.289V177.407H325.565C318.783 177.407 313.696 174.495 313.696 165.636V155.443Z" fill="black"/>
<path d="M349.426 177.771C340.221 177.771 333.317 171.825 333.317 161.875C333.317 152.046 340.342 146.1 349.426 146.1C358.509 146.1 365.534 152.046 365.534 161.875C365.655 171.704 358.631 177.771 349.426 177.771ZM349.426 168.306C352.211 168.306 354.755 166.243 354.755 161.753C354.755 157.385 352.332 155.322 349.547 155.322C346.761 155.322 344.339 157.385 344.339 161.753C344.339 166.365 346.64 168.306 349.426 168.306Z" fill="black"/>
<path d="M380.795 177.286H370.016V146.464H380.795V151.924C383.096 148.527 386.609 146.221 390.727 146.221V157.749H387.699C383.217 157.749 380.795 159.205 380.795 163.938V177.286Z" fill="black"/>
<path d="M58.7422 241.113C50.1428 241.113 43.3602 236.988 42.9968 228.736H54.503C54.7453 231.648 56.4409 232.619 58.3788 232.619C60.3167 232.619 61.7701 231.648 61.7701 229.828C61.7701 223.64 42.8757 226.552 43.1179 213.083C43.1179 205.438 49.4161 201.433 57.6521 201.433C66.4937 201.433 72.4285 205.802 72.7918 213.447H61.0434C60.9223 211.02 59.4689 209.928 57.531 209.928C55.9565 209.928 54.6242 210.777 54.6242 212.718C54.6242 218.543 73.2763 216.602 73.2763 229.1C73.1552 235.774 67.9471 241.113 58.7422 241.113Z" fill="black"/>
<path d="M109.733 240.749H98.9534V236.381C97.1366 239.05 93.9876 241.113 89.6273 241.113C82.4814 241.113 78 236.017 78 227.887V209.927H88.6584V226.431C88.6584 229.95 90.7174 232.134 93.7453 232.134C96.8944 232.134 98.8323 230.071 98.8323 226.431V209.927H109.612V240.749H109.733Z" fill="black"/>
<path d="M129.717 209.442C137.469 209.442 143.283 213.932 144.736 221.698H133.351C132.745 219.878 131.534 218.664 129.475 218.664C126.811 218.664 125.115 220.849 125.115 225.217C125.115 229.707 126.932 231.891 129.475 231.891C131.534 231.891 132.745 230.799 133.351 228.857H144.736C143.162 236.502 137.469 241.113 129.717 241.113C120.513 241.113 114.093 235.167 114.093 225.217C114.093 215.509 120.513 209.442 129.717 209.442Z" fill="black"/>
<path d="M163.025 209.442C170.776 209.442 176.59 213.932 178.044 221.698H166.658C166.053 219.878 164.842 218.664 162.783 218.664C160.118 218.664 158.422 220.849 158.422 225.217C158.422 229.707 160.239 231.891 162.783 231.891C164.842 231.891 166.053 230.799 166.658 228.857H178.044C176.469 236.502 170.776 241.113 163.025 241.113C153.82 241.113 147.401 235.167 147.401 225.217C147.522 215.509 153.941 209.442 163.025 209.442Z" fill="black"/>
<path d="M196.453 241.113C187.369 241.113 180.829 235.167 180.829 225.217C180.829 215.388 187.248 209.442 196.453 209.442C205.537 209.442 211.956 215.388 211.956 224.853C211.956 225.702 211.956 226.552 211.835 227.401H191.487C191.73 230.92 193.668 232.376 196.09 232.376C198.149 232.376 199.36 231.163 199.966 229.95H211.472C209.897 236.381 204.205 241.113 196.453 241.113ZM191.487 222.183H200.935C200.935 219.392 198.755 217.936 196.332 217.936C193.789 218.058 191.972 219.392 191.487 222.183Z" fill="black"/>
<path d="M229.519 241.113C220.919 241.113 215.227 236.502 214.742 230.314H225.158C225.401 232.376 227.096 233.469 229.397 233.469C231.214 233.469 232.304 232.619 232.304 231.527C232.304 227.037 215.953 230.678 215.953 219.392C215.953 214.053 220.435 209.563 228.792 209.563C237.149 209.563 241.63 214.296 242.357 220.363H232.668C232.304 218.422 230.972 217.33 228.671 217.33C226.854 217.33 226.006 218.058 226.006 219.15C226.006 223.518 242.478 219.999 242.478 231.77C242.357 236.988 237.512 241.113 229.519 241.113Z" fill="black"/>
<path d="M260.767 241.113C252.168 241.113 246.475 236.502 245.991 230.314H256.407C256.649 232.376 258.345 233.469 260.646 233.469C262.463 233.469 263.553 232.619 263.553 231.527C263.553 227.037 247.202 230.678 247.202 219.392C247.202 214.053 251.683 209.563 260.04 209.563C268.398 209.563 272.879 214.296 273.606 220.363H263.916C263.553 218.422 262.221 217.33 259.919 217.33C258.103 217.33 257.255 218.058 257.255 219.15C257.255 223.518 273.727 219.999 273.727 231.77C273.485 236.988 268.64 241.113 260.767 241.113Z" fill="black"/>
<path d="M248.776 310.28H250.351L254.469 319.624L258.587 310.28H260.162V321.565H258.708V313.192L254.953 321.565H253.863L250.109 313.192V321.565H248.655V310.28H248.776Z" fill="black"/>
<path d="M266.46 312.464C268.155 312.464 269.245 313.314 269.73 314.285V312.707H271.183V321.565H269.73V319.866C269.245 320.837 268.034 321.687 266.46 321.687C264.037 321.687 262.22 319.866 262.22 317.075C262.22 314.285 264.037 312.464 266.46 312.464ZM266.823 313.799C265.248 313.799 263.795 315.013 263.795 317.075C263.795 319.138 265.127 320.473 266.823 320.473C268.397 320.473 269.851 319.26 269.851 317.197C269.73 315.013 268.397 313.799 266.823 313.799Z" fill="black"/>
<path d="M280.267 316.469C280.267 314.649 279.298 313.678 277.724 313.678C276.27 313.678 275.18 314.649 275.18 316.59V321.565H273.727V312.707H275.18V313.921C275.786 312.95 276.876 312.464 278.087 312.464C280.146 312.464 281.721 313.678 281.721 316.347V321.565H280.267V316.469Z" fill="black"/>
<path d="M287.898 312.464C289.593 312.464 290.683 313.314 291.168 314.285V312.707H292.621V321.565H291.168V319.866C290.683 320.837 289.472 321.687 287.898 321.687C285.475 321.687 283.658 319.866 283.658 317.075C283.658 314.285 285.475 312.464 287.898 312.464ZM288.14 313.799C286.565 313.799 285.112 315.013 285.112 317.075C285.112 319.138 286.444 320.473 288.14 320.473C289.714 320.473 291.168 319.26 291.168 317.197C291.168 315.013 289.714 313.799 288.14 313.799Z" fill="black"/>
<path d="M298.798 312.464C300.373 312.464 301.584 313.314 302.068 314.285V312.707H303.522V321.808C303.522 324.235 301.826 326.055 299.283 326.055C296.981 326.055 295.286 324.842 294.922 323.021H296.376C296.739 324.114 297.708 324.842 299.162 324.842C300.736 324.842 301.947 323.871 301.947 321.929V320.109C301.463 321.08 300.252 321.929 298.677 321.929C296.255 321.929 294.438 320.109 294.438 317.318C294.559 314.285 296.376 312.464 298.798 312.464ZM299.162 313.799C297.587 313.799 296.134 315.013 296.134 317.075C296.134 319.138 297.466 320.473 299.162 320.473C300.736 320.473 302.19 319.26 302.19 317.197C302.19 315.013 300.736 313.799 299.162 313.799Z" fill="black"/>
<path d="M309.941 321.687C307.398 321.687 305.581 319.866 305.581 317.075C305.581 314.285 307.398 312.464 309.941 312.464C312.485 312.464 314.18 314.285 314.18 316.711C314.18 317.075 314.18 317.318 314.18 317.561H307.034C307.155 319.381 308.367 320.352 309.941 320.352C311.273 320.352 312.121 319.624 312.485 318.653H314.059C313.575 320.473 312.242 321.687 309.941 321.687ZM307.155 316.469H312.727C312.727 314.77 311.394 313.799 309.941 313.799C308.488 313.678 307.276 314.649 307.155 316.469Z" fill="black"/>
<path d="M324.233 312.464C325.929 312.464 327.019 313.314 327.503 314.285V312.707H328.957V321.565H327.503V319.866C327.019 320.837 325.808 321.687 324.233 321.687C321.811 321.687 319.994 319.866 319.994 317.075C319.994 314.285 321.811 312.464 324.233 312.464ZM324.475 313.799C322.901 313.799 321.447 315.013 321.447 317.075C321.447 319.138 322.78 320.473 324.475 320.473C326.05 320.473 327.503 319.26 327.503 317.197C327.503 315.013 326.171 313.799 324.475 313.799Z" fill="black"/>
<path d="M331.5 309.552H332.953V321.565H331.5V309.552Z" fill="black"/>
<path d="M335.497 309.552H336.95V321.565H335.497V309.552Z" fill="black"/>
<path d="M347.003 321.687C344.944 321.687 343.491 320.594 343.37 318.896H344.944C345.065 319.745 345.792 320.352 347.003 320.352C348.214 320.352 348.82 319.745 348.82 319.017C348.82 317.075 343.612 318.168 343.612 314.891C343.612 313.556 344.944 312.343 346.882 312.343C348.82 312.343 350.152 313.435 350.273 315.134H348.82C348.699 314.285 348.093 313.556 346.882 313.556C345.792 313.556 345.186 314.042 345.186 314.77C345.186 316.833 350.394 315.741 350.394 318.896C350.273 320.594 348.941 321.687 347.003 321.687Z" fill="black"/>
<path d="M356.208 321.687C353.665 321.687 351.727 319.866 351.727 317.075C351.727 314.285 353.665 312.464 356.208 312.464C358.752 312.464 360.69 314.285 360.69 317.075C360.811 319.866 358.752 321.687 356.208 321.687ZM356.208 320.352C357.783 320.352 359.236 319.26 359.236 317.075C359.236 314.77 357.783 313.799 356.208 313.799C354.634 313.799 353.18 314.891 353.18 317.075C353.301 319.381 354.634 320.352 356.208 320.352Z" fill="black"/>
<path d="M366.503 312.464C368.683 312.464 370.137 313.556 370.621 315.498H369.047C368.683 314.406 367.835 313.799 366.503 313.799C364.929 313.799 363.717 315.013 363.717 317.197C363.717 319.381 364.929 320.594 366.503 320.594C367.835 320.594 368.683 319.988 369.047 318.896H370.621C370.137 320.716 368.683 321.929 366.503 321.929C363.96 321.929 362.143 320.109 362.143 317.318C362.143 314.285 363.96 312.464 366.503 312.464Z" fill="black"/>
<path d="M372.317 310.159C372.317 309.552 372.801 309.188 373.286 309.188C373.77 309.188 374.255 309.673 374.255 310.159C374.255 310.765 373.77 311.13 373.286 311.13C372.801 311.13 372.317 310.765 372.317 310.159ZM372.559 312.586H374.013V321.444H372.559V312.586Z" fill="black"/>
<path d="M380.19 312.464C381.885 312.464 382.975 313.314 383.46 314.285V312.707H384.913V321.565H383.46V319.866C382.975 320.837 381.764 321.687 380.19 321.687C377.767 321.687 375.95 319.866 375.95 317.075C375.95 314.285 377.888 312.464 380.19 312.464ZM380.553 313.799C378.978 313.799 377.525 315.013 377.525 317.075C377.525 319.138 378.857 320.473 380.553 320.473C382.127 320.473 383.581 319.26 383.581 317.197C383.581 315.013 382.127 313.799 380.553 313.799Z" fill="black"/>
<path d="M387.578 309.552H389.031V321.565H387.578V309.552Z" fill="black"/>
<path d="M261.615 335.641C261.615 333.821 260.646 332.85 259.193 332.85C257.739 332.85 256.649 333.821 256.649 335.763V340.738H255.196V335.641C255.196 333.821 254.227 332.85 252.773 332.85C251.32 332.85 250.23 333.821 250.23 335.763V340.738H248.776V331.88H250.23V333.214C250.835 332.244 251.925 331.758 253.016 331.758C254.469 331.758 255.68 332.365 256.286 333.7C256.77 332.365 258.102 331.758 259.435 331.758C261.494 331.758 263.068 332.972 263.068 335.641V340.859H261.615V335.641Z" fill="black"/>
<path d="M269.367 340.859C266.823 340.859 265.006 339.039 265.006 336.248C265.006 333.457 266.823 331.637 269.367 331.637C271.91 331.637 273.606 333.457 273.606 335.884C273.606 336.248 273.606 336.491 273.606 336.733H266.46C266.581 338.554 267.792 339.524 269.367 339.524C270.699 339.524 271.547 338.796 271.91 337.826H273.485C273 339.524 271.547 340.859 269.367 340.859ZM266.581 335.52H272.152C272.152 333.821 270.82 332.85 269.367 332.85C267.913 332.85 266.702 333.821 266.581 335.52Z" fill="black"/>
<path d="M279.298 331.637C280.752 331.637 281.963 332.365 282.568 333.336V328.603H284.022V340.616H282.568V338.918C282.084 339.888 280.873 340.738 279.298 340.738C276.876 340.738 275.059 338.918 275.059 336.127C275.059 333.457 276.876 331.637 279.298 331.637ZM279.54 332.972C277.966 332.972 276.513 334.185 276.513 336.248C276.513 338.311 277.845 339.646 279.54 339.646C281.115 339.646 282.568 338.432 282.568 336.369C282.568 334.185 281.236 332.972 279.54 332.972Z" fill="black"/>
<path d="M286.323 329.331C286.323 328.725 286.807 328.361 287.292 328.361C287.776 328.361 288.261 328.846 288.261 329.331C288.261 329.938 287.776 330.302 287.292 330.302C286.807 330.302 286.323 329.938 286.323 329.331ZM286.565 331.758H288.019V340.616H286.565V331.758Z" fill="black"/>
<path d="M294.317 331.637C296.012 331.637 297.103 332.486 297.587 333.457V331.88H299.04V340.738H297.587V339.039C297.103 340.01 295.891 340.859 294.317 340.859C291.894 340.859 290.078 339.039 290.078 336.248C290.078 333.457 291.894 331.637 294.317 331.637ZM294.559 332.972C292.984 332.972 291.531 334.185 291.531 336.248C291.531 338.311 292.863 339.646 294.559 339.646C296.134 339.646 297.587 338.432 297.587 336.369C297.587 334.185 296.134 332.972 294.559 332.972Z" fill="black"/>
<path d="M305.702 329.331C305.702 328.725 306.186 328.361 306.671 328.361C307.155 328.361 307.64 328.846 307.64 329.331C307.64 329.938 307.155 330.302 306.671 330.302C306.065 330.302 305.702 329.938 305.702 329.331ZM305.944 331.758H307.398V340.616H305.944V331.758Z" fill="black"/>
<path d="M316.36 335.641C316.36 333.821 315.391 332.85 313.817 332.85C312.363 332.85 311.273 333.821 311.273 335.763V340.738H309.82V331.88H311.273V333.093C311.879 332.122 312.969 331.637 314.18 331.637C316.239 331.637 317.814 332.85 317.814 335.52V340.738H316.36V335.641Z" fill="black"/>
<path d="M328.472 340.859C325.929 340.859 323.991 339.039 323.991 336.248C323.991 333.457 325.929 331.637 328.472 331.637C331.016 331.637 332.953 333.457 332.953 336.248C333.075 339.039 331.016 340.859 328.472 340.859ZM328.472 339.524C330.047 339.524 331.5 338.432 331.5 336.248C331.5 333.943 330.047 332.972 328.472 332.972C326.898 332.972 325.444 334.064 325.444 336.248C325.565 338.432 327.019 339.524 328.472 339.524Z" fill="black"/>
<path d="M341.553 335.641C341.553 333.821 340.584 332.85 339.009 332.85C337.556 332.85 336.466 333.821 336.466 335.763V340.738H335.012V331.88H336.466V333.093C337.071 332.122 338.162 331.637 339.373 331.637C341.432 331.637 343.006 332.85 343.006 335.52V340.738H341.553V335.641Z" fill="black"/>
<path d="M349.304 340.859C346.761 340.859 344.944 339.039 344.944 336.248C344.944 333.457 346.761 331.637 349.304 331.637C351.848 331.637 353.543 333.457 353.543 335.884C353.543 336.248 353.543 336.491 353.543 336.733H346.398C346.519 338.554 347.73 339.524 349.304 339.524C350.637 339.524 351.484 338.796 351.848 337.826H353.422C352.938 339.524 351.484 340.859 349.304 340.859ZM346.398 335.52H351.969C351.969 333.821 350.637 332.85 349.183 332.85C347.73 332.85 346.519 333.821 346.398 335.52Z" fill="black"/>
<path d="M364.565 331.637C366.988 331.637 368.804 333.457 368.804 336.248C368.804 339.039 366.988 340.859 364.565 340.859C362.991 340.859 361.779 340.01 361.295 339.039V344.864H359.842V331.758H361.295V333.457C361.779 332.486 362.991 331.637 364.565 331.637ZM364.323 332.972C362.748 332.972 361.295 334.185 361.295 336.248C361.295 338.311 362.748 339.524 364.323 339.524C366.019 339.524 367.351 338.311 367.351 336.127C367.351 334.064 365.897 332.972 364.323 332.972Z" fill="black"/>
<path d="M370.742 328.603H372.196V340.616H370.742V328.603Z" fill="black"/>
<path d="M378.494 331.637C380.189 331.637 381.28 332.486 381.764 333.457V331.88H383.217V340.738H381.764V339.039C381.28 340.01 380.068 340.859 378.494 340.859C376.071 340.859 374.255 339.039 374.255 336.248C374.255 333.457 376.071 331.637 378.494 331.637ZM378.736 332.972C377.161 332.972 375.708 334.185 375.708 336.248C375.708 338.311 377.04 339.646 378.736 339.646C380.311 339.646 381.764 338.432 381.764 336.369C381.764 334.185 380.432 332.972 378.736 332.972Z" fill="black"/>
<path d="M389.516 331.637C391.696 331.637 393.149 332.729 393.634 334.671H392.059C391.696 333.578 390.848 332.972 389.516 332.972C387.941 332.972 386.73 334.185 386.73 336.248C386.73 338.432 387.941 339.646 389.516 339.646C390.848 339.646 391.696 339.039 392.059 337.947H393.634C393.149 339.767 391.696 340.981 389.516 340.981C386.972 340.981 385.155 339.16 385.155 336.369C385.155 333.457 386.972 331.637 389.516 331.637Z" fill="black"/>
<path d="M399.447 340.859C396.904 340.859 395.087 339.039 395.087 336.248C395.087 333.457 396.904 331.637 399.447 331.637C401.991 331.637 403.686 333.457 403.686 335.884C403.686 336.248 403.686 336.491 403.686 336.733H396.54C396.661 338.554 397.873 339.524 399.447 339.524C400.779 339.524 401.627 338.796 401.991 337.826H403.565C403.081 339.524 401.627 340.859 399.447 340.859ZM396.54 335.52H402.112C402.112 333.821 400.779 332.85 399.326 332.85C397.994 332.85 396.783 333.821 396.54 335.52Z" fill="black"/>
<path d="M457.594 356.551L452.66 355.086L452.66 354.184L454.137 354.43L459 355.906L459 356.715L457.594 356.551ZM452.66 357.412L457.617 356.27L459 356.176L459 357.078L452.66 358.795L452.66 357.412ZM457.559 352.812L452.66 351.705L452.66 350.328L459 352.039L459 352.941L457.559 352.812ZM452.66 354.031L457.535 352.584L459 352.402L459 353.211L454.131 354.705L452.66 354.951L452.66 354.031ZM457.594 347.495L452.66 346.03L452.66 345.127L454.137 345.373L459 346.85L459 347.659L457.594 347.495ZM452.66 348.356L457.617 347.213L459 347.12L459 348.022L452.66 349.739L452.66 348.356ZM457.559 343.756L452.66 342.649L452.66 341.272L459 342.983L459 343.885L457.559 343.756ZM452.66 344.975L457.535 343.528L459 343.346L459 344.155L454.131 345.649L452.66 345.895L452.66 344.975ZM457.594 338.438L452.66 336.973L452.66 336.071L454.137 336.317L459 337.794L459 338.602L457.594 338.438ZM452.66 339.3L457.617 338.157L459 338.063L459 338.966L452.66 340.682L452.66 339.3ZM457.559 334.7L452.66 333.593L452.66 332.216L459 333.927L459 334.829L457.559 334.7ZM452.66 335.919L457.535 334.471L459 334.29L459 335.098L454.131 336.593L452.66 336.839L452.66 335.919ZM458.297 331.773C458.078 331.773 457.895 331.698 457.746 331.55C457.594 331.402 457.518 331.2 457.518 330.946C457.518 330.689 457.594 330.487 457.746 330.343C457.895 330.195 458.078 330.12 458.297 330.12C458.516 330.12 458.699 330.195 458.848 330.343C458.996 330.487 459.07 330.689 459.07 330.946C459.07 331.2 458.996 331.402 458.848 331.55C458.699 331.698 458.516 331.773 458.297 331.773ZM457.283 324.785C457.143 324.785 457.016 324.82 456.902 324.89C456.785 324.961 456.68 325.095 456.586 325.295C456.492 325.49 456.406 325.779 456.328 326.162C456.254 326.498 456.166 326.806 456.064 327.087C455.959 327.365 455.832 327.603 455.684 327.802C455.535 328.002 455.359 328.156 455.156 328.265C454.953 328.375 454.719 328.429 454.453 328.429C454.195 328.429 453.951 328.373 453.721 328.259C453.49 328.146 453.287 327.984 453.111 327.773C452.936 327.562 452.797 327.306 452.695 327.005C452.594 326.701 452.543 326.361 452.543 325.986C452.543 325.455 452.633 325 452.812 324.621C452.988 324.238 453.229 323.945 453.533 323.742C453.834 323.539 454.174 323.437 454.553 323.437L454.553 324.849C454.385 324.849 454.229 324.892 454.084 324.978C453.936 325.06 453.816 325.185 453.727 325.353C453.633 325.521 453.586 325.732 453.586 325.986C453.586 326.228 453.625 326.429 453.703 326.589C453.777 326.746 453.875 326.863 453.996 326.941C454.117 327.015 454.25 327.052 454.395 327.052C454.5 327.052 454.596 327.033 454.682 326.994C454.764 326.951 454.84 326.88 454.91 326.783C454.977 326.685 455.039 326.552 455.098 326.384C455.156 326.212 455.213 325.998 455.268 325.74C455.369 325.255 455.5 324.839 455.66 324.492C455.816 324.14 456.02 323.871 456.27 323.683C456.516 323.496 456.828 323.402 457.207 323.402C457.488 323.402 457.746 323.462 457.98 323.584C458.211 323.701 458.412 323.873 458.584 324.099C458.752 324.326 458.883 324.597 458.977 324.914C459.07 325.226 459.117 325.578 459.117 325.968C459.117 326.543 459.016 327.029 458.812 327.427C458.605 327.826 458.342 328.129 458.021 328.336C457.697 328.539 457.361 328.64 457.014 328.64L457.014 327.275C457.275 327.259 457.484 327.187 457.641 327.058C457.793 326.925 457.904 326.761 457.975 326.566C458.041 326.367 458.074 326.162 458.074 325.951C458.074 325.697 458.041 325.484 457.975 325.312C457.904 325.14 457.811 325.009 457.693 324.92C457.572 324.83 457.436 324.785 457.283 324.785ZM455.9 322.285L455.766 322.285C455.309 322.285 454.885 322.219 454.494 322.086C454.1 321.953 453.758 321.762 453.469 321.512C453.176 321.258 452.949 320.949 452.789 320.586C452.625 320.219 452.543 319.805 452.543 319.344C452.543 318.879 452.625 318.465 452.789 318.102C452.949 317.734 453.176 317.424 453.469 317.17C453.758 316.916 454.1 316.723 454.494 316.59C454.885 316.457 455.309 316.391 455.766 316.391L455.9 316.391C456.357 316.391 456.781 316.457 457.172 316.59C457.562 316.723 457.904 316.916 458.197 317.17C458.486 317.424 458.713 317.732 458.877 318.096C459.037 318.459 459.117 318.871 459.117 319.332C459.117 319.797 459.037 320.213 458.877 320.58C458.713 320.943 458.486 321.252 458.197 321.506C457.904 321.76 457.562 321.953 457.172 322.086C456.781 322.219 456.357 322.285 455.9 322.285ZM455.766 320.873L455.9 320.873C456.186 320.873 456.455 320.844 456.709 320.785C456.963 320.727 457.186 320.635 457.377 320.51C457.568 320.385 457.719 320.225 457.828 320.029C457.937 319.834 457.992 319.602 457.992 319.332C457.992 319.07 457.937 318.844 457.828 318.652C457.719 318.457 457.568 318.297 457.377 318.172C457.186 318.047 456.963 317.955 456.709 317.896C456.455 317.834 456.186 317.803 455.9 317.803L455.766 317.803C455.484 317.803 455.219 317.834 454.969 317.896C454.715 317.955 454.49 318.049 454.295 318.178C454.1 318.303 453.947 318.463 453.838 318.658C453.725 318.85 453.668 319.078 453.668 319.344C453.668 319.609 453.725 319.84 453.838 320.035C453.947 320.227 454.1 320.385 454.295 320.51C454.49 320.635 454.715 320.727 454.969 320.785C455.219 320.844 455.484 320.873 455.766 320.873ZM457.992 312.467C457.992 312.237 457.947 312.03 457.857 311.846C457.764 311.659 457.635 311.508 457.471 311.395C457.307 311.278 457.117 311.213 456.902 311.202L456.902 309.871C457.312 309.879 457.686 310 458.021 310.235C458.357 310.469 458.625 310.78 458.824 311.166C459.02 311.553 459.117 311.981 459.117 312.45C459.117 312.934 459.035 313.356 458.871 313.715C458.703 314.075 458.473 314.373 458.18 314.612C457.887 314.85 457.549 315.03 457.166 315.151C456.783 315.268 456.373 315.327 455.936 315.327L455.73 315.327C455.293 315.327 454.883 315.268 454.5 315.151C454.113 315.03 453.773 314.85 453.48 314.612C453.187 314.373 452.959 314.075 452.795 313.715C452.627 313.356 452.543 312.936 452.543 312.455C452.543 311.948 452.645 311.502 452.848 311.12C453.047 310.737 453.326 310.436 453.686 310.217C454.041 309.995 454.455 309.879 454.928 309.871L454.928 311.202C454.693 311.213 454.482 311.272 454.295 311.377C454.104 311.479 453.951 311.623 453.838 311.811C453.725 311.995 453.668 312.215 453.668 312.473C453.668 312.758 453.727 312.995 453.844 313.182C453.957 313.37 454.113 313.516 454.312 313.621C454.508 313.727 454.729 313.803 454.975 313.85C455.217 313.893 455.469 313.914 455.73 313.914L455.936 313.914C456.197 313.914 456.451 313.893 456.697 313.85C456.943 313.807 457.164 313.733 457.359 313.627C457.551 313.518 457.705 313.37 457.822 313.182C457.936 312.995 457.992 312.756 457.992 312.467ZM452.66 307.126L459 307.126L459 308.544L452.66 308.544L452.66 307.126ZM450.996 308.638C450.781 308.638 450.604 308.567 450.463 308.427C450.318 308.282 450.246 308.083 450.246 307.829C450.246 307.579 450.318 307.382 450.463 307.237C450.604 307.093 450.781 307.02 450.996 307.02C451.207 307.02 451.383 307.093 451.523 307.237C451.664 307.382 451.734 307.579 451.734 307.829C451.734 308.083 451.664 308.282 451.523 308.427C451.383 308.567 451.207 308.638 450.996 308.638ZM457.729 301.855L454.705 301.855C454.479 301.855 454.283 301.896 454.119 301.978C453.955 302.06 453.828 302.185 453.738 302.353C453.648 302.517 453.604 302.724 453.604 302.974C453.604 303.204 453.643 303.404 453.721 303.571C453.799 303.739 453.904 303.87 454.037 303.964C454.17 304.058 454.32 304.105 454.488 304.105L454.488 305.511C454.238 305.511 453.996 305.45 453.762 305.329C453.527 305.208 453.318 305.032 453.135 304.802C452.951 304.571 452.807 304.296 452.701 303.976C452.596 303.655 452.543 303.296 452.543 302.898C452.543 302.421 452.623 301.999 452.783 301.632C452.943 301.261 453.186 300.97 453.51 300.759C453.83 300.544 454.232 300.437 454.717 300.437L457.535 300.437C457.824 300.437 458.084 300.417 458.314 300.378C458.541 300.335 458.738 300.275 458.906 300.196L459 300.196L459 301.644C458.848 301.71 458.654 301.763 458.42 301.802C458.182 301.837 457.951 301.855 457.729 301.855ZM455.145 301.65L456.018 301.638L456.018 302.652C456.018 302.913 456.043 303.144 456.094 303.343C456.141 303.542 456.211 303.708 456.305 303.841C456.398 303.974 456.512 304.073 456.645 304.14C456.777 304.206 456.928 304.239 457.096 304.239C457.264 304.239 457.418 304.2 457.559 304.122C457.695 304.044 457.803 303.931 457.881 303.782C457.959 303.63 457.998 303.446 457.998 303.232C457.998 302.943 457.939 302.691 457.822 302.476C457.701 302.257 457.555 302.085 457.383 301.96C457.207 301.835 457.041 301.769 456.885 301.761L457.512 301.304C457.672 301.351 457.844 301.431 458.027 301.544C458.211 301.657 458.387 301.806 458.555 301.989C458.719 302.169 458.854 302.386 458.959 302.64C459.064 302.89 459.117 303.179 459.117 303.507C459.117 303.921 459.035 304.29 458.871 304.614C458.703 304.939 458.479 305.193 458.197 305.376C457.912 305.56 457.59 305.652 457.23 305.652C456.895 305.652 456.598 305.589 456.34 305.464C456.078 305.335 455.859 305.148 455.684 304.902C455.508 304.652 455.375 304.347 455.285 303.987C455.191 303.628 455.145 303.218 455.145 302.757L455.145 301.65ZM450 297.298L459 297.298L459 298.716L450 298.716L450 297.298ZM458.309 293.762L452.66 292.039L452.66 290.527L459.967 293.07C460.123 293.129 460.293 293.205 460.477 293.299C460.66 293.393 460.834 293.516 460.998 293.668C461.166 293.816 461.301 294.002 461.402 294.225C461.508 294.447 461.561 294.717 461.561 295.033C461.561 295.158 461.549 295.279 461.525 295.396C461.506 295.51 461.484 295.617 461.461 295.719L460.383 295.725C460.387 295.686 460.391 295.639 460.395 295.584C460.398 295.525 460.4 295.479 460.4 295.443C460.4 295.209 460.371 295.014 460.312 294.857C460.258 294.701 460.168 294.574 460.043 294.477C459.918 294.375 459.75 294.289 459.539 294.219L458.309 293.762ZM452.66 294.734L457.406 293.229L458.895 292.977L459.146 293.955L452.66 296.258L452.66 294.734ZM458.297 290.272C458.078 290.272 457.895 290.198 457.746 290.049C457.594 289.901 457.518 289.7 457.518 289.446C457.518 289.188 457.594 288.987 457.746 288.842C457.895 288.694 458.078 288.62 458.297 288.62C458.516 288.62 458.699 288.694 458.848 288.842C458.996 288.987 459.07 289.188 459.07 289.446C459.07 289.7 458.996 289.901 458.848 290.049C458.699 290.198 458.516 290.272 458.297 290.272ZM457.992 284.251C457.992 284.02 457.947 283.813 457.857 283.63C457.764 283.442 457.635 283.292 457.471 283.179C457.307 283.061 457.117 282.997 456.902 282.985L456.902 281.655C457.312 281.663 457.686 281.784 458.021 282.018C458.357 282.253 458.625 282.563 458.824 282.95C459.02 283.337 459.117 283.764 459.117 284.233C459.117 284.718 459.035 285.139 458.871 285.499C458.703 285.858 458.473 286.157 458.18 286.395C457.887 286.634 457.549 286.813 457.166 286.934C456.783 287.052 456.373 287.11 455.936 287.11L455.73 287.11C455.293 287.11 454.883 287.052 454.5 286.934C454.113 286.813 453.773 286.634 453.48 286.395C453.187 286.157 452.959 285.858 452.795 285.499C452.627 285.139 452.543 284.72 452.543 284.239C452.543 283.731 452.645 283.286 452.848 282.903C453.047 282.52 453.326 282.22 453.686 282.001C454.041 281.778 454.455 281.663 454.928 281.655L454.928 282.985C454.693 282.997 454.482 283.055 454.295 283.161C454.104 283.262 453.951 283.407 453.838 283.595C453.725 283.778 453.668 283.999 453.668 284.257C453.668 284.542 453.727 284.778 453.844 284.966C453.957 285.153 454.113 285.3 454.312 285.405C454.508 285.511 454.729 285.587 454.975 285.634C455.217 285.677 455.469 285.698 455.73 285.698L455.936 285.698C456.197 285.698 456.451 285.677 456.697 285.634C456.943 285.591 457.164 285.516 457.359 285.411C457.551 285.302 457.705 285.153 457.822 284.966C457.936 284.778 457.992 284.54 457.992 284.251ZM455.9 280.691L455.766 280.691C455.309 280.691 454.885 280.624 454.494 280.491C454.1 280.359 453.758 280.167 453.469 279.917C453.176 279.663 452.949 279.355 452.789 278.991C452.625 278.624 452.543 278.21 452.543 277.749C452.543 277.284 452.625 276.87 452.789 276.507C452.949 276.14 453.176 275.829 453.469 275.575C453.758 275.321 454.1 275.128 454.494 274.995C454.885 274.863 455.309 274.796 455.766 274.796L455.9 274.796C456.357 274.796 456.781 274.863 457.172 274.995C457.562 275.128 457.904 275.321 458.197 275.575C458.486 275.829 458.713 276.138 458.877 276.501C459.037 276.864 459.117 277.277 459.117 277.738C459.117 278.202 459.037 278.618 458.877 278.986C458.713 279.349 458.486 279.657 458.197 279.911C457.904 280.165 457.562 280.359 457.172 280.491C456.781 280.624 456.357 280.691 455.9 280.691ZM455.766 279.279L455.9 279.279C456.186 279.279 456.455 279.249 456.709 279.191C456.963 279.132 457.186 279.04 457.377 278.915C457.568 278.79 457.719 278.63 457.828 278.435C457.937 278.239 457.992 278.007 457.992 277.738C457.992 277.476 457.937 277.249 457.828 277.058C457.719 276.863 457.568 276.702 457.377 276.577C457.186 276.452 456.963 276.361 456.709 276.302C456.455 276.239 456.186 276.208 455.9 276.208L455.766 276.208C455.484 276.208 455.219 276.239 454.969 276.302C454.715 276.361 454.49 276.454 454.295 276.583C454.1 276.708 453.947 276.868 453.838 277.064C453.725 277.255 453.668 277.484 453.668 277.749C453.668 278.015 453.725 278.245 453.838 278.441C453.947 278.632 454.1 278.79 454.295 278.915C454.49 279.04 454.715 279.132 454.969 279.191C455.219 279.249 455.484 279.279 455.766 279.279ZM453.949 272.05L459 272.05L459 273.463L452.66 273.463L452.66 272.132L453.949 272.05ZM455.596 272.279L455.59 272.759C455.152 272.759 454.748 272.705 454.377 272.595C454.006 272.486 453.684 272.326 453.41 272.115C453.133 271.904 452.92 271.642 452.771 271.33C452.619 271.013 452.543 270.648 452.543 270.234C452.543 269.945 452.586 269.681 452.672 269.443C452.754 269.201 452.885 268.992 453.064 268.816C453.244 268.636 453.475 268.5 453.756 268.406C454.037 268.308 454.377 268.259 454.775 268.259L459 268.259L459 269.671L454.898 269.671C454.59 269.671 454.348 269.718 454.172 269.812C453.996 269.902 453.871 270.033 453.797 270.205C453.719 270.373 453.68 270.574 453.68 270.808C453.68 271.074 453.73 271.3 453.832 271.488C453.934 271.671 454.072 271.822 454.248 271.939C454.424 272.056 454.627 272.142 454.857 272.197C455.088 272.252 455.334 272.279 455.596 272.279ZM455.221 268.347L455.367 269.009C454.984 269.009 454.623 268.957 454.283 268.851C453.939 268.742 453.639 268.584 453.381 268.377C453.119 268.166 452.914 267.906 452.766 267.597C452.617 267.289 452.543 266.935 452.543 266.537C452.543 266.213 452.588 265.923 452.678 265.67C452.764 265.412 452.9 265.193 453.088 265.013C453.275 264.834 453.52 264.697 453.82 264.603C454.117 264.509 454.477 264.463 454.898 264.463L459 264.463L459 265.88L454.893 265.88C454.572 265.88 454.324 265.927 454.148 266.021C453.973 266.111 453.852 266.24 453.785 266.408C453.715 266.576 453.68 266.777 453.68 267.011C453.68 267.23 453.721 267.423 453.803 267.591C453.881 267.755 453.992 267.894 454.137 268.007C454.277 268.121 454.439 268.207 454.623 268.265C454.807 268.32 455.006 268.347 455.221 268.347Z" fill="black"/>
</svg>
